<mxfile host="app.diagrams.net" modified="2023-04-06T12:32:42.981Z" agent="Mozilla/5.0 (Windows NT 10.0; Win64; x64) AppleWebKit/537.36 (KHTML, like Gecko) Chrome/111.0.0.0 Safari/537.36" version="21.1.4" etag="x7SZGIBO0CCB5xTI6awJ" type="github">
  <diagram name="PÃ¡gina-1" id="cIxO0kSnO1Zjq61n_Mwn">
    <mxGraphModel>
      <root>
        <mxCell id="0" />
        <mxCell id="1" parent="0" />
      </root>
    </mxGraphModel>
  </diagram>
</mxfile>
